.
..............................Site Info...........................

 -   http://www.scenetime.com  *_*    

Scenetime .Always on time . friendly online private torrent community ..

     We care to share . Join us on  http://www.scenetime.com 

    Be the first to get new release at  http://www.scenetime.com

        Seed back for speed


...................................NFO:.................................................General
Unique ID                                : 97997552244566907514199545776643261940 (0x49B9A45C5E962FCB244192208AE845F4)
Complete name                            : I:UPNicolas Cage Collection part 11986.Peggy.Sue.Got.Married.DVDRip.XviD.by.Waldek.for.SceneTime1986.Peggy.Sue.Got.Married.DVDRip.XviD.by.Waldek.for.SceneTime.mkv
Format                                   : Matroska
Format version                           : Version 1
File size                                : 1.21 GiB
Duration                                 : 1h 38mn
Overall bit rate                         : 1 752 Kbps
Encoded date                             : UTC 2012-03-28 04:11:36
Writing application                      : VirtualDubMod 1.5.4.1 (build 2178/release)
Writing library                          : libebml-0.5.1 & libmatroska-0.5.1

Video
ID                                       : 1
Format                                   : MPEG-4 Visual
Format profile                           : Advanced Simple@L5
Format settings, BVOP                    : Yes
Format settings, QPel                    : No
Format settings, GMC                     : No warppoints
Format settings, Matrix                  : Custom
Codec ID                                 : XVID
Codec ID/Hint                            : XviD
Duration                                 : 1h 38mn
Bit rate                                 : 1 525 Kbps
Width                                    : 688 pixels
Height                                   : 368 pixels
Display aspect ratio                     : 1.85:1
Frame rate                               : 25.000 fps
Color space                              : YUV
Chroma subsampling                       : 4:2:0
Bit depth                                : 8 bits
Scan type                                : Progressive
Compression mode                         : Lossy
Bits/(Pixel*Frame)                       : 0.241
Stream size                              : 1.05 GiB (87%)
Writing library                          : XviD 1.2.0.dev47 (UTC 2006-11-01)
Language                                 : English
Default                                  : Yes
Forced                                   : No

Audio
ID                                       : 2
Format                                   : AC-3
Format/Info                              : Audio Coding 3
Mode extension                           : CM (complete main)
Format settings, Endianness              : Big
Codec ID                                 : 2000
Duration                                 : 1h 38mn
Bit rate mode                            : Constant
Bit rate                                 : 192 Kbps
Channel(s)                               : 2 channels
Channel positions                        : Front: L R
Sampling rate                            : 48.0 KHz
Bit depth                                : 16 bits
Compression mode                         : Lossy
Stream size                              : 136 MiB (11%)
Language                                 : English
Default                                  : Yes
Forced                                   : No